# xmcd CD database file
#
# Track frame offsets:
#	150
#	20612
#	48571
#	86350
#	99762
#
# Disc length: 1777 seconds
#
# Revision: 0
# Processed by: cddbd v1.5PL3 Copyright (c) Steve Scherf et al.
# Submitted via: CDex 1.40Release
#
DISCID=2f06ef05
DTITLE=Mi Air Mi Eau - Mi Air Mi Eau
DYEAR=1998
DGENRE=Blues
TTITLE0=China
TTITLE1=Hémophile
TTITLE2=Coloured
TTITLE3=False Blonde
TTITLE4=Season Circle
EXTD=YEAR: 1998 ID3G: 0
EXTT0=
EXTT1=
EXTT2=
EXTT3=
EXTT4=
PLAYORDER=
